<svg xmlns="http://www.w3.org/2000/svg" width="164" height="109.7"><defs><style>.a{fill:#fff}</style></defs><path class="a" d="M96.621 1.982h1.85v1.85h-1.85zm38.358 22.9h1.85v1.85h-1.85zm22.415-1.982a2.823 2.823 0 001.1-.925 3.593 3.593 0 00.573-1.453 8.8 8.8 0 00.176-1.938V5.681h-1.85v12.9a10.416 10.416 0 01-.088 1.321 2.312 2.312 0 01-.264.881 1.12 1.12 0 01-.529.484 2.474 2.474 0 01-.881.132 1.358 1.358 0 01-.44-.044 1.523 1.523 0 01-.529-.132l-.484 1.762a6.16 6.16 0 001.5.22 3.868 3.868 0 001.716-.305zm-6.337-20.478h-2.554v-.44a.939.939 0 01.132-.528.791.791 0 01.572-.176h1.277V0h-1.327a2.169 2.169 0 00-1.629.573 2.3 2.3 0 00-.572 1.762v1.5h4.052V2.422zm-19.778 22.46h1.85v1.85h-1.85zm-30.959-22.9h1.85v1.85h-1.85zm42.409 14.709a7.173 7.173 0 002.422 1.1 12.508 12.508 0 002.907.352h.484l.617-1.277v1.806a2.347 2.347 0 01-.837 2.07 3.975 3.975 0 01-2.334.617 5.5 5.5 0 01-1.541-.176 7.531 7.531 0 01-1.541-.573l-.572 1.762a14.752 14.752 0 001.894.573 6.841 6.841 0 001.629.176 5.306 5.306 0 003.919-1.277 4.814 4.814 0 001.233-3.435V5.681h-2.951a10.116 10.116 0 00-3.127.484 7.14 7.14 0 00-2.422 1.321 6.042 6.042 0 00-1.541 1.982 6.153 6.153 0 00-.573 2.51 5.872 5.872 0 00.617 2.774 6.117 6.117 0 001.717 1.939zm0-6.518a3.951 3.951 0 011.145-1.409 5.75 5.75 0 011.585-.925 5.024 5.024 0 011.806-.308h2.995l-1.057.528v8.279h-1.85a5.589 5.589 0 01-1.938-.308 4.54 4.54 0 01-1.585-.837 4.186 4.186 0 01-1.1-1.365 4.086 4.086 0 01-.4-1.85 3.619 3.619 0 01.399-1.805zM97.106 22.988h3.831v-1.407c.044.044.088.132.132.176a2.823 2.823 0 001.1.925 3.79 3.79 0 001.673.308h33.646V5.681h-1.85v15.546h-31.751a2.474 2.474 0 01-.881-.132 1.121 1.121 0 01-.528-.484 2.312 2.312 0 01-.264-.881 10.4 10.4 0 01-.088-1.321V5.681H97.15a8.495 8.495 0 00-8.588 8.632v.044a8.458 8.458 0 008.544 8.631zm-6.562-8.72a6.6 6.6 0 016.562-6.87h4.316l-1.145.573v10.393a8.8 8.8 0 00.176 1.938c.088.352.176.617.264.925h-3.611a6.668 6.668 0 01-6.606-6.914v-.044zm-11.186 4.14l.837 2.114L68.481 5.637h-1.85v17.307h1.894V9.909l-1.057-2.51 12.243 15.546h1.585V5.637h-1.938zm26.291 32.148l10.613-10.129v-6.958h-28.4v7.927h14.577l5.417-3.479-13.481 13.564 1.453 5.857h3.831c5.152 0 8.235 1.938 8.235 5.329v.132c0 3.127-2.466 5.108-5.945 5.108-4.272 0-7.266-1.806-10.173-5.02l-6.385 6.082c3.611 4.272 8.852 7.266 16.382 7.266 9.38 0 15.149-5.813 15.149-13.74v-.132c.001-7.844-5.592-10.838-11.273-11.807zM54.608 5.373a8.758 8.758 0 00-8.852 8.94v.044a8.83 8.83 0 1017.66-.044v-.04a8.659 8.659 0 00-8.808-8.9zm6.782 8.984a6.8 6.8 0 01-6.782 7.09 6.876 6.876 0 01-6.826-7.134v-.04a6.8 6.8 0 016.782-7.09 6.876 6.876 0 016.826 7.134zm80.327 18.364c-12.991 0-22.416 9.777-22.416 21.711v.132c0 11.934 9.292 21.579 22.284 21.579s22.416-9.776 22.416-21.711V54.3c0-11.89-9.293-21.579-22.284-21.579zm12.639 21.843c0 7.178-5.152 13.079-12.6 13.079s-12.727-5.989-12.727-13.212v-.132c0-7.178 5.153-13.079 12.6-13.079s12.727 5.989 12.727 13.168zM40.427 5.637h1.938V22.9h-1.938zM9.072 70.638l1.806-1.365 9.2-7.09c7.443-5.769 11.054-9.248 11.054-16.25v-.132c0-7.839-5.769-12.947-14.489-12.947-7.487 0-11.538 3.039-15.678 8.676l6.474 5.2c3.127-3.831 5.329-5.637 8.588-5.637 3.3 0 5.637 1.938 5.637 5.461 0 3.479-2.026 5.769-7.266 10.085l-14 11.45v7.31h31.133v-7.976H15.457zm.088-47.562L16.6 5.637h-2.07l-5.9 14.18.176 1.894-.484-1.189L3.259 8.237l-1.1-2.6H0l7.443 17.439zM19.289 5.637h1.938V22.9h-1.938zm12.286 7.707c-3.787-.793-4.712-1.718-4.712-3.347v-.044c0-1.541 1.453-2.774 3.7-2.774a7.514 7.514 0 014.976 1.894l1.145-1.5a9.041 9.041 0 00-6.077-2.112c-3.3 0-5.681 1.982-5.681 4.712v.044c0 2.818 1.85 4.14 5.813 4.976 3.655.749 4.492 1.673 4.492 3.3 0 1.718-1.541 2.951-3.875 2.951a8.214 8.214 0 01-5.945-2.422l-1.19 1.412a10.134 10.134 0 007.09 2.774c3.435 0 5.9-1.938 5.9-4.888v-.044c.001-2.686-1.76-4.095-5.636-4.932zM56.634 29.99l2.114 2.026-2.026 2.114-2.114-2.026zm4.888 2.114l2.114 2.026 2.026-2.114-2.114-2.026zm-2.995 2.686l1.629 1.585 1.585-1.673-1.629-1.585zm6.078.881l1.629 1.629 1.585-1.673-1.629-1.585zM55.797 37.3l1.673 1.585 1.585-1.629-1.673-1.585zm5.549.22l1.673 1.585 1.585-1.673-1.673-1.585zm-2.158 1.895l1.145 1.1 1.145-1.145-1.19-1.144zm4.404.88l1.145 1.1 1.145-1.145-1.19-1.144zm9.61-8.845l3.638-.667.66 3.595-3.639.667zm-4.75 1.475l2.903-.531.531 2.902-2.903.532zm5.643 4.046l2.903-.532.532 2.902-2.903.533zm-4.002.42l2.253-.413.412 2.253-2.252.413zm4.366 4.322l2.253-.413.412 2.253-2.252.413zm-7.756-3.396l2.253-.413.412 2.253-2.252.413zm4.095 2.952l2.253-.413.412 2.253-2.252.413zm-2.891.289l1.602-.294.294 1.603-1.602.293zm3.079 3.254l1.602-.293.293 1.603-1.602.292z"/><path class="a" d="M83.937 43.246l-1.585 3.347 3.347 1.541 1.585-3.3zm-4.712-1.497l-1.277 2.642 2.686 1.277 1.277-2.686zm2.202 6.517l-1.277 2.686 2.686 1.233 1.233-2.642zm-3.522-1.981l-.969 2.07 2.07.969 1.013-2.07zm1.056 6.033l-.969 2.07 2.07 1.013 1.013-2.07zm-4.315-7.266l-1.013 2.07 2.114.969.969-2.07zm1.585 4.8l-.969 2.07 2.07.969.969-2.07zm-2.51-1.453l-.661 1.453 1.453.7.7-1.5zm-.116 5.903l.7-1.471 1.471.7-.7 1.471zm12.138 4.842l-3.215 1.762 1.762 3.215 3.215-1.762zm-2.905-4.008l-2.6 1.409 1.409 2.6 2.6-1.409zm-2.115 6.606l-2.554 1.409 1.409 2.6 2.6-1.453zm-1.629-3.655l-2.026 1.1 1.1 1.982 2.026-1.1zm-2.687 5.505l-2.026 1.1 1.1 2.026 2.026-1.1zm.749-8.456l-2.026 1.1 1.1 2.026 2.026-1.1zm-1.541 4.845l-2.026 1.1 1.145 2.026 1.982-1.145zm-1.146-2.643l-1.409.749.749 1.453 1.409-.793zm-2.158 3.92l-1.409.793.749 1.409 1.409-.793zm1.45 14.998l.45-3.63 3.673.456-.45 3.629zm.798-5.579l.363-2.929 2.929.363-.363 2.929zm-5.536 4.14l.363-2.929 2.929.363-.363 2.929zm1.542-4.508l.281-2.273 2.273.281-.281 2.273zm-5.412 2.905l.281-2.273 2.273.281-.281 2.273zm5.527-6.408l.282-2.273 2.272.282-.281 2.273zm-4.037 3.022l.282-2.273 2.272.282-.281 2.273zm1.365-3.413l.2-1.616 1.616.2-.2 1.616zm-4.085 1.92l.2-1.617 1.617.2-.2 1.617zm-.548 11.419l-2.73-2.51-2.466 2.73 2.686 2.466zm-.528-51.437l-2.69-2.466-2.51 2.686 2.73 2.466zm3.387 47.43l-2.158-2.026-2.026 2.158 2.158 2.026zm-6.914.088l-2.158-1.982-2.026 2.158 2.158 1.982zm2.951-2.731l-1.673-1.541-1.586 1.673 1.673 1.541zm-6.078-.793l-1.718-1.541-1.541 1.673 1.673 1.541zm8.236-1.938l-1.673-1.585-1.585 1.674 1.718 1.585zm-5.065.088l-1.673-1.585-1.585 1.673 1.718 1.585zm2.158-1.938l-1.189-1.1-1.1 1.145 1.189 1.1zm-4.404-.837l-1.189-1.1-1.1 1.189 1.189 1.1zm-13.797 6.167l3.627-.727.718 3.584-3.627.727zm5.564-1.053l2.892-.578.578 2.892-2.892.578zm-5.672-3.917l2.892-.581.581 2.892-2.892.581zm4.721.023l2.244-.449.449 2.244-2.244.45zm3.391-.973l2.244-.449.449 2.244-2.244.45zm-4.144-2.908l2.244-.449.449 2.244-2.244.45zm3.669.198l1.597-.32.32 1.598-1.597.32zm-3.123-3.212l1.596-.32.321 1.596-1.596.32zm-11.043 3.034l1.541-3.347-3.347-1.5-1.541 3.35zm4.756 1.453l1.189-2.686-2.642-1.189-1.233 2.686zm-2.29-6.518l1.189-2.642-2.686-1.233-1.189 2.686zm1.429.998l.95-2.084 2.084.95-.95 2.084zm4.869 6.181l.969-2.07-2.114-.969-.925 2.07zm-6.02-12.216l.95-2.084 2.084.95-.95 2.084zm4.47 7.221l.95-2.084 2.084.95-.95 2.084zm-1.709-4.779l.951-2.083 2.083.951-.95 2.083zm4.624 2.376l.661-1.453-1.453-.661-.661 1.453zm-.614-4.448l.661-1.453-1.461-.661-.7 1.453zm-11.584-6.078l3.215-1.85-1.806-3.17-3.215 1.806zm2.994 3.92l2.6-1.453-1.5-2.554-2.553 1.452zm1.981-6.607l2.554-1.453-1.453-2.554-2.554 1.453zm1.718 3.612l1.982-1.145-1.1-1.982-2.027 1.145zm2.599-5.549l1.982-1.145-1.1-1.982-2.027 1.145zm-.617 8.456l2.026-1.145-1.145-1.982-2.026 1.145zm1.453-4.844l1.982-1.145-1.145-1.982-1.982 1.145zm1.19 2.596l1.409-.793-.793-1.409-1.409.837zm2.114-3.964l1.409-.793-.793-1.409-1.409.837zm-5.779-11.693l.387-3.633 3.677.392-.387 3.633zm.116 4.934l.314-2.934 2.934.314-.314 2.934zm5.467-4.211l.314-2.934 2.934.314-.314 2.934zm-.76 3.977l.244-2.277 2.277.244-.244 2.277zm5.406-3.001l.243-2.277 2.277.243-.243 2.277zm-5.462 6.468l.244-2.277 2.277.244-.244 2.277zm4.009-3.093l.244-2.277 2.277.244-.244 2.277zm-.555 2.862l.173-1.62 1.62.174-.173 1.62zm4.03-1.98l.172-1.62 1.62.172-.172 1.62zm17.352 15.295a7.055 7.055 0 00-1.453-.617 8.732 8.732 0 00-4.008-.308 8.211 8.211 0 00-1.717.44c-.044 0-.132.044-.176.044l-.925.4a7.12 7.12 0 00-.793.44 20.62 20.62 0 00-1.762 1.189 35.571 35.571 0 01-.176-9.336c1.365.881 1.013 3.3.7 4.008 0 0 0 .044.044 0a4.293 4.293 0 00.528-4.844 4.071 4.071 0 01.617.617 3.693 3.693 0 01.793 2.07 6.447 6.447 0 010 .925v.22a3.941 3.941 0 000-3.655 4.14 4.14 0 00-.793-1.057l-.308-.308v-.044c.088.044.22.044.308.088a3.33 3.33 0 01.793.4 3.461 3.461 0 011.1 1.453 3.758 3.758 0 01.264 1.365h.044a3.538 3.538 0 00-.264-2.774 3.473 3.473 0 00-1.894-1.409 1.285 1.285 0 00-.4-.088v-.044h.352a4.528 4.528 0 01.793.044 2.863 2.863 0 011.1.44 2.77 2.77 0 01.749.793h.044a2.335 2.335 0 00-.749-1.5 2.643 2.643 0 00-1.1-.573 4.963 4.963 0 00-.793-.132 2.24 2.24 0 00-.969.176 2.029 2.029 0 011.013-.7 2.439 2.439 0 01.793-.088 2.925 2.925 0 01.661.132 2.5 2.5 0 00-.661-.528 2.8 2.8 0 00-.793-.264 1.977 1.977 0 00-1.894.925h-.044l-.264-.528a7.5 7.5 0 01-.44-1.409h-.044a5.547 5.547 0 01-.44 1.453l-.264.528h-.044a2.038 2.038 0 00-3.347-.132 2.034 2.034 0 012.422.661 2.942 2.942 0 00-3.127.749 2.63 2.63 0 00-.528 1.233s0 .044.044 0a1.635 1.635 0 01.484-.572 3.13 3.13 0 012.51-.661v.03a3.308 3.308 0 00-2.51 1.982 3.8 3.8 0 00-.044 2.246h.044v-.044a3.269 3.269 0 012.422-3.259s.044 0 0 .044a4.06 4.06 0 00-1.1 5.02h.044a4.088 4.088 0 011.409-3.831 4.293 4.293 0 00.528 4.844h.044c-.308-.7-.661-3.127.7-4.008a37.638 37.638 0 01-.176 9.336 14.627 14.627 0 00-3.435-2.026c-.132-.044-.264-.088-.44-.132a10.088 10.088 0 00-3.259-.484 8.843 8.843 0 00-3.347.837 1.916 1.916 0 00-.308.176c-.044 0 0 .088.044.044.088-.044.22-.044.308-.088a8.967 8.967 0 013.347-.352 10.21 10.21 0 013.259.881 17.735 17.735 0 013.875 2.51 37.493 37.493 0 01-3.875 3.3c-.044.044-.088.044-.132.088a.938.938 0 00-.925-.352.847.847 0 00-.661.661.818.818 0 00.176.793 1.317 1.317 0 001.585.22c1.145-.484 2.554-1.982 4.316-3.567.132-.132.308-.264.44-.4.132.132.308.264.44.4.793.7 1.5 1.409 2.158 2.026a5.25 5.25 0 00.793.661 6.978 6.978 0 001.1.749 1.379 1.379 0 001.717-.044l.088-.088a.9.9 0 00-.088-1.233.839.839 0 00-.44-.22.875.875 0 00-.925.352 3.969 3.969 0 01-.4-.22c-.308-.22-.661-.528-1.1-.881-.264-.22-.528-.44-.793-.7-.528-.484-1.145-1.013-1.762-1.585A16.691 16.691 0 0162.736 58a7.659 7.659 0 01.793-.484 8.658 8.658 0 011.1-.573 13.747 13.747 0 011.718-.661 9.328 9.328 0 014.008-.264 8.247 8.247 0 011.409.352c.088.088.132.044.088.044M8.544 96.4h1.101v1.101H8.544zm72.927-1.277v-7.134h-1.057v6.077H76.45v-6.077h-1.057v6.077h-4.184v-6.077h-1.672a5.764 5.764 0 00-1.806.264 4.06 4.06 0 00-1.365.749 3.2 3.2 0 00-.881 1.145 3.131 3.131 0 00-.308 1.409 3.51 3.51 0 00.352 1.585 2.931 2.931 0 00.969 1.1 4.374 4.374 0 001.365.661 6.969 6.969 0 001.673.22H81.47zm-13.476-1.189a3.077 3.077 0 01-.925-.484 2.153 2.153 0 01-.617-.793 2.661 2.661 0 01-.22-1.057 1.93 1.93 0 01.264-1.013 2.883 2.883 0 01.661-.793 3.168 3.168 0 01.925-.529 2.961 2.961 0 011.057-.176h1.057v5.065H69.14c-.44-.088-.836-.132-1.145-.22zm-9.071-8.235h1.057v9.468h-1.057zm11.186 0h1.101V86.8H70.11zm10.305 10.657h1.101v1.101h-1.101zm-70.022.044h1.101v1.101h-1.101zm44.391-2.334h-1.718a3.3 3.3 0 01-1.453-.264 2.065 2.065 0 01-.837-.793 6.071 6.071 0 00.088-.969v-3.391h-1.056v3.567a2.14 2.14 0 01-.484 1.453 1.936 1.936 0 01-1.5.528 2.565 2.565 0 01-.837-.132 1.658 1.658 0 01-.661-.4 2.826 2.826 0 01-.44-.572 2.073 2.073 0 01-.176-.7V88.65h-1.055v3.655a2.384 2.384 0 01-.132.837 1.675 1.675 0 01-.4.572 1.448 1.448 0 01-.573.308 1.711 1.711 0 01-.661.088h-2.023v-5.417h-1.055v5.417h-5.545l1.85-4.4a6.864 6.864 0 00-.881-.7 11.123 11.123 0 00-.969-.572 4.821 4.821 0 00-1.013-.4 4 4 0 00-1.013-.132 3.755 3.755 0 00-1.013.132 4.04 4.04 0 00-1.013.4 7 7 0 00-.969.572 6.862 6.862 0 00-.881.7l1.85 4.4h-3.659v-6.077h-1.673a5.482 5.482 0 00-1.762.264 4.061 4.061 0 00-1.365.749 3.307 3.307 0 00-1.189 2.6 3.509 3.509 0 00.352 1.585 2.884 2.884 0 00.969 1.1 4.559 4.559 0 001.409.617 6.97 6.97 0 001.673.22h.617v.308a1.374 1.374 0 01-.484 1.189 2.247 2.247 0 01-1.321.352 5.418 5.418 0 01-.881-.088 4.23 4.23 0 01-.881-.308l-.308 1.013c.4.132.749.264 1.057.352a3.353 3.353 0 00.925.132 3.065 3.065 0 002.246-.749 2.666 2.666 0 00.7-1.982v-.264h16.387a2.719 2.719 0 001.365-.308 3.1 3.1 0 00.969-.881 2.488 2.488 0 001.057.969 3.509 3.509 0 001.585.352 3.714 3.714 0 001.629-.308 2.255 2.255 0 001.013-1.013 2.671 2.671 0 00.308.44 4.679 4.679 0 00.484.4 1.887 1.887 0 00.749.264 3.878 3.878 0 00.749.088h3.039v-9.471h-1.057v8.411zm-29.374 0h-1.057a3.042 3.042 0 01-1.1-.176 2.33 2.33 0 01-.925-.484 2.153 2.153 0 01-.617-.793 2.661 2.661 0 01-.22-1.057 2.213 2.213 0 01.264-1.057 2.884 2.884 0 01.661-.793 3.169 3.169 0 01.925-.528 2.96 2.96 0 011.057-.176h1.057v5.064zm5.857 0l-1.629-4.052a4.626 4.626 0 011.233-.749 3.473 3.473 0 011.321-.22 3.988 3.988 0 011.409.264 3.864 3.864 0 011.189.7l-1.624 4.057h-1.9zM4.932 85.699h1.101V86.8H4.932zm106.75 0h1.101V86.8h-1.101zm-9.336 0h1.057v9.468h-1.057zm-34.086 0h1.101V86.8H68.26zm-49.5 5.285a3.283 3.283 0 00-.176-1.145 1.96 1.96 0 00-.528-.925 3.442 3.442 0 00-.925-.7 3.682 3.682 0 00-1.277-.22h-.793v1.057h.925a1.292 1.292 0 01.7.176 1.816 1.816 0 01.572.44 1.627 1.627 0 01.308.617 3.95 3.95 0 01.088.793v3.039h-4.927v1.057h5.989v-4.184zm139.427-5.285h1.057v9.468h-1.057zm-44.655 0h1.101V86.8h-1.101zm41.572 0h-1.057v8.411h-3.611a4.007 4.007 0 000-3.083 4.944 4.944 0 00-.793-1.233 3.3 3.3 0 00-1.233-.793 4.369 4.369 0 00-1.541-.308 3.512 3.512 0 00-1.5.308 4.47 4.47 0 00-1.189.837 3.3 3.3 0 00-.793 1.233 3.727 3.727 0 00-.22 2.29 3.725 3.725 0 00.22.749h-3.259a4.007 4.007 0 000-3.083 3.957 3.957 0 00-.793-1.233 3.3 3.3 0 00-1.233-.793 4.369 4.369 0 00-1.541-.308 3.513 3.513 0 00-1.5.308 4.469 4.469 0 00-1.189.837 3.3 3.3 0 00-.793 1.233 3.729 3.729 0 00-.22 2.29 3.731 3.731 0 00.22.749h-3.347v-8.411h-1.057v8.411h-3.347v-1.629a3.283 3.283 0 00-.176-1.145 2.33 2.33 0 00-.484-.925 2.874 2.874 0 00-.925-.7 3.757 3.757 0 00-1.321-.22h-4.668l1.982-3.787h-1.145l-2.026 3.787a1.757 1.757 0 00.176.573c.088.132.176.308.308.484h5.373a2.649 2.649 0 01.881.132 1.34 1.34 0 01.573.4 1.626 1.626 0 01.308.617 3.875 3.875 0 01.088.749v1.629h-9.777v-6.086h-1.668a5.764 5.764 0 00-1.806.264 4.06 4.06 0 00-1.365.749 3.2 3.2 0 00-.881 1.145 3.13 3.13 0 00-.308 1.409 3.508 3.508 0 00.352 1.585 2.929 2.929 0 00.969 1.1 4.373 4.373 0 001.365.661 6.969 6.969 0 001.673.22h20.918a4.186 4.186 0 001.233.881 3.575 3.575 0 001.541.308 3.775 3.775 0 001.585-.308 3.687 3.687 0 001.277-.881h4.624a4.185 4.185 0 001.233.881 3.575 3.575 0 001.541.308 3.775 3.775 0 001.585-.308 3.686 3.686 0 001.277-.881h5.373v-9.423zm-41.528 8.367h-1.057a3.042 3.042 0 01-1.1-.176 3.076 3.076 0 01-.925-.484 2.151 2.151 0 01-.617-.793 2.661 2.661 0 01-.22-1.057 1.93 1.93 0 01.264-1.013 2.881 2.881 0 01.661-.793 3.167 3.167 0 01.925-.529 2.96 2.96 0 011.057-.176h1.057v5.02zm25.675-.44a3.039 3.039 0 01-.573.881 2.345 2.345 0 01-.881.572 3.066 3.066 0 01-1.1.22 2.661 2.661 0 01-1.057-.22 2.82 2.82 0 01-.837-.572 2.888 2.888 0 01-.793-1.938 2.661 2.661 0 01.22-1.057 2.346 2.346 0 01.572-.881 2.947 2.947 0 01.837-.617 3.067 3.067 0 011.1-.22 2.885 2.885 0 011.1.22 3.04 3.04 0 01.881.573 2.347 2.347 0 01.573.881 3.067 3.067 0 01.22 1.1 4.64 4.64 0 01-.263 1.058zm10.217 0a3.042 3.042 0 01-.573.881 2.346 2.346 0 01-.881.572 3.066 3.066 0 01-1.1.22 2.661 2.661 0 01-1.057-.22 2.821 2.821 0 01-.837-.572 2.888 2.888 0 01-.793-1.938 2.662 2.662 0 01.22-1.057 2.347 2.347 0 01.572-.881 2.948 2.948 0 01.837-.617 2.863 2.863 0 012.2 0 3.041 3.041 0 01.881.573 2.345 2.345 0 01.572.881 3.065 3.065 0 01.22 1.1 3.112 3.112 0 01-.262 1.058zM2.686 94.947a6.969 6.969 0 001.673.22h6.914v-7.134h-1.056v6.077H6.033v-6.077H4.36a5.763 5.763 0 00-1.806.264 4.06 4.06 0 00-1.365.749 3.2 3.2 0 00-.881 1.145A3.132 3.132 0 000 91.6a3.51 3.51 0 00.352 1.585 2.931 2.931 0 00.969 1.1 4.375 4.375 0 001.365.662zm-1.629-3.391a1.93 1.93 0 01.264-1.013 2.885 2.885 0 01.661-.793 3.169 3.169 0 01.925-.528 2.96 2.96 0 011.057-.176H5.02v5.064h-1.1a3.041 3.041 0 01-1.1-.176 3.077 3.077 0 01-.925-.484 2.152 2.152 0 01-.617-.793 3.066 3.066 0 01-.221-1.101zM76.539 96.4h1.101v1.101h-1.101zm-1.849 0h1.101v1.101H74.69zm10.921.088a4.3 4.3 0 00.088-1.1v-.264h13.564v-9.469h-1.057v8.411h-4.492l1.85-4.4a6.86 6.86 0 00-.881-.7 11.166 11.166 0 00-.969-.572 4.821 4.821 0 00-1.013-.4 4 4 0 00-1.013-.132 3.755 3.755 0 00-1.013.132 4.039 4.039 0 00-1.013.4 7.016 7.016 0 00-.969.572 6.856 6.856 0 00-.881.7l1.85 4.4h-3.919v-6.077h-1.056v7.354a3.58 3.58 0 01-.044.749 1.241 1.241 0 01-.176.484.592.592 0 01-.308.264 1.583 1.583 0 01-.484.088h-.264a1.121 1.121 0 01-.308-.088l-.266 1.015a2.992 2.992 0 00.837.132 2.119 2.119 0 00.969-.176 1.465 1.465 0 00.617-.528 1.885 1.885 0 00.351-.795zm3.479-6.43a4.624 4.624 0 011.233-.749 3.473 3.473 0 011.321-.22 3.989 3.989 0 011.409.264 3.864 3.864 0 011.189.7l-1.629 4.052h-1.894zM3.083 85.699h1.101V86.8H3.083zm4.492 16.382h-1.63l-3.567 3.743v-3.743H1.013v7.487h1.365v-2.158l1.145-1.189 2.6 3.347h1.584l-3.259-4.272zm1.365 0h1.321v7.531H8.94zm8.632 5.2l-4.052-5.2h-1.233v7.487h1.321v-5.329l4.14 5.329h1.1v-7.487h-1.276zm6.781-.752h1.938v1.409a3.043 3.043 0 01-1.806.572 2.51 2.51 0 01-2.554-2.686 2.532 2.532 0 012.466-2.642 2.965 2.965 0 012.114.793l.837-1.013a4.091 4.091 0 00-2.907-1.013 3.825 3.825 0 00-3.875 3.875 3.734 3.734 0 003.919 3.875 4.591 4.591 0 003.127-1.189v-3.171h-3.215v1.189zm7.839-4.448h-2.818v7.531h2.818a3.755 3.755 0 004.008-3.743 3.739 3.739 0 00-4.008-3.788zm2.6 3.787a2.462 2.462 0 01-2.6 2.554h-1.5v-5.108h1.5a2.416 2.416 0 012.6 2.554zm6.604-3.919a3.846 3.846 0 00-3.963 3.875 3.942 3.942 0 007.883 0 3.81 3.81 0 00-3.92-3.875zm2.554 3.919a2.549 2.549 0 01-2.554 2.642 2.586 2.586 0 01-2.554-2.686 2.557 2.557 0 115.108.044zm6.739-.264l-2.29-3.523h-1.41v7.487h1.277v-5.373l2.378 3.523h.044l2.378-3.523v5.373h1.323v-7.487H52.98zm12.463-3.655a3.847 3.847 0 00-3.964 3.875 3.942 3.942 0 007.883 0 3.758 3.758 0 00-3.919-3.875zm2.554 3.919a2.549 2.549 0 01-2.554 2.642 2.586 2.586 0 01-2.554-2.686 2.557 2.557 0 115.109.044zm3.038 3.7h1.321v-3.039h3.831v-1.189h-3.831v-2.07h4.316v-1.189h-5.637zm13.212-4.36c-1.453-.352-1.806-.617-1.806-1.189 0-.484.44-.881 1.233-.881a3.191 3.191 0 012.026.793l.7-1.013a4.1 4.1 0 00-2.73-.925 2.282 2.282 0 00-2.554 2.2c0 1.409.925 1.85 2.51 2.246 1.409.308 1.717.617 1.717 1.145 0 .572-.528.925-1.321.925a3.483 3.483 0 01-2.378-.969l-.793.925a4.706 4.706 0 003.127 1.189c1.585 0 2.686-.837 2.686-2.246.005-1.231-.832-1.804-2.417-2.2zm6.471-3.215l-3.3 7.575h1.365l.793-1.806h3.567l.749 1.806h1.409l-3.3-7.575zm-.7 4.624l1.277-2.995 1.321 2.995zm11.183-.22c0 1.365-.7 2.114-1.894 2.114s-1.894-.749-1.894-2.158v-4.272h-1.32v4.316a2.948 2.948 0 003.215 3.3c1.982 0 3.259-1.145 3.259-3.391v-4.269h-1.321v4.36zm6.078-4.316h-2.818v7.531h2.818a3.755 3.755 0 004.008-3.743 3.788 3.788 0 00-4.008-3.788zm2.6 3.787a2.462 2.462 0 01-2.6 2.554h-1.5v-5.108h1.5a2.439 2.439 0 012.6 2.554zm3.081-3.787h1.321v7.531h-1.321zm9.201-.088l-3.3 7.575h1.365l.793-1.806h3.567l.749 1.806h1.409l-3.3-7.575zm-.661 4.624l1.277-2.995 1.321 2.995zm12.642-2.158a2.262 2.262 0 00-.617-1.629 2.983 2.983 0 00-2.158-.749h-3.346v7.531h1.321v-2.642h1.629l1.85 2.642h1.541l-2.026-2.863a2.284 2.284 0 001.806-2.29zm-4.844 1.321v-2.51h1.938c.969 0 1.541.44 1.541 1.233 0 .749-.617 1.277-1.541 1.277zm9.378-3.787l-3.3 7.575h1.365l.793-1.806h3.567l.749 1.806h1.409l-3.3-7.575zm-.7 4.624l1.277-2.995 1.321 2.995zm11.272-.925a1.8 1.8 0 001.057-1.674 1.73 1.73 0 00-.484-1.233 2.692 2.692 0 00-1.982-.661h-3.391v7.531h3.479c1.673 0 2.774-.7 2.774-2.07a1.76 1.76 0 00-1.453-1.893zm-3.479-2.467h1.894c.837 0 1.321.352 1.321.969 0 .7-.573 1.013-1.409 1.013h-1.806zm3.655 4.14c0 .661-.528 1.013-1.453 1.013h-2.2v-2.07h2.114c1.013.044 1.541.44 1.541 1.057zm2.951-5.284h1.321v7.531h-1.321zm7.134-.088h-1.236l-3.3 7.575h1.365l.793-1.806h3.567l.749 1.806h1.409zm-1.894 4.624l1.277-2.995 1.321 2.995z"/></svg>