
<svg width="64" height="64" viewBox="0 0 64 64" fill="none" xmlns="http://www.w3.org/2000/svg">
  <rect width="64" height="64" rx="12" fill="#2563EB"/>
  <path d="M20 32C20 25.373 25.373 20 32 20C38.627 20 44 25.373 44 32C44 38.627 38.627 44 32 44C29.429 44 27.048 43.217 25.074 41.882L20 44L22.118 38.926C20.783 36.952 20 34.571 20 32Z" fill="white"/>
  <path d="M32 22C26.486 22 22 26.486 22 32C22 33.771 22.453 35.436 23.257 36.893L24.257 38.743L23.257 41.743L26.257 40.743L28.107 41.743C29.564 42.547 31.229 43 33 43C38.514 43 43 38.514 43 33C43 27.486 38.514 23 33 23C32.671 23 32.336 23.016 32 23.047V22C32 22 32 22 32 22Z" fill="#25D366"/>
  <text x="32" y="37" font-family="Arial, sans-serif" font-size="10" font-weight="bold" fill="white" text-anchor="middle">AR</text>
</svg>
